<mxfile host="Electron" modified="2024-09-20T13:42:04.668Z" agent="Mozilla/5.0 (Windows NT 10.0; Win64; x64) AppleWebKit/537.36 (KHTML, like Gecko) draw.io/22.0.3 Chrome/114.0.5735.289 Electron/25.8.4 Safari/537.36" etag="PauPlbRZ57tRp_VELHSQ" version="22.0.3" type="device">
  <diagram name="Page 1" id="Page-1">
    <mxGraphModel dx="1404" dy="546" grid="1" gridSize="10" guides="1" tooltips="1" connect="1" arrows="1" fold="1" page="1" pageScale="1" pageWidth="869" pageHeight="380" math="0" shadow="0">
      <root>
        <mxCell id="0" />
        <mxCell id="1" parent="0" />
        <mxCell id="LZRvv1edOtaZu7CTyLe6-309" value="" style="rounded=0;whiteSpace=wrap;html=1;fillColor=none;dashed=1;dashPattern=8 8;" vertex="1" parent="1">
          <mxGeometry x="10" y="390" width="850" height="360" as="geometry" />
        </mxCell>
        <mxCell id="LZRvv1edOtaZu7CTyLe6-155" value="NUL&lt;br&gt;\0" style="rounded=0;whiteSpace=wrap;html=1;points=[];fillColor=#C3ABD0;fillOpacity=20;" vertex="1" parent="1">
          <mxGeometry x="60" y="430" width="50" height="40" as="geometry" />
        </mxCell>
        <mxCell id="LZRvv1edOtaZu7CTyLe6-156" value="SOH" style="rounded=0;whiteSpace=wrap;html=1;points=[];fillColor=#C3ABD0;fillOpacity=20;" vertex="1" parent="1">
          <mxGeometry x="110" y="430" width="50" height="40" as="geometry" />
        </mxCell>
        <mxCell id="LZRvv1edOtaZu7CTyLe6-157" value="STX" style="rounded=0;whiteSpace=wrap;html=1;points=[];fillColor=#C3ABD0;fillOpacity=20;" vertex="1" parent="1">
          <mxGeometry x="160" y="430" width="50" height="40" as="geometry" />
        </mxCell>
        <mxCell id="LZRvv1edOtaZu7CTyLe6-158" value="ETX" style="rounded=0;whiteSpace=wrap;html=1;points=[];fillColor=#C3ABD0;fillOpacity=20;" vertex="1" parent="1">
          <mxGeometry x="210" y="430" width="50" height="40" as="geometry" />
        </mxCell>
        <mxCell id="LZRvv1edOtaZu7CTyLe6-159" value="EOT" style="rounded=0;whiteSpace=wrap;html=1;points=[];fillColor=#C3ABD0;fillOpacity=20;" vertex="1" parent="1">
          <mxGeometry x="260" y="430" width="50" height="40" as="geometry" />
        </mxCell>
        <mxCell id="LZRvv1edOtaZu7CTyLe6-160" value="ENQ" style="rounded=0;whiteSpace=wrap;html=1;points=[];fillColor=#C3ABD0;fillOpacity=20;" vertex="1" parent="1">
          <mxGeometry x="310" y="430" width="50" height="40" as="geometry" />
        </mxCell>
        <mxCell id="LZRvv1edOtaZu7CTyLe6-161" value="ACK" style="rounded=0;whiteSpace=wrap;html=1;points=[];fillColor=#C3ABD0;fillOpacity=20;" vertex="1" parent="1">
          <mxGeometry x="360" y="430" width="50" height="40" as="geometry" />
        </mxCell>
        <mxCell id="LZRvv1edOtaZu7CTyLe6-162" value="BEL&lt;br&gt;\a" style="rounded=0;whiteSpace=wrap;html=1;points=[];fillColor=#C3ABD0;fillOpacity=20;" vertex="1" parent="1">
          <mxGeometry x="410" y="430" width="50" height="40" as="geometry" />
        </mxCell>
        <mxCell id="LZRvv1edOtaZu7CTyLe6-163" value="BS&lt;br&gt;\b" style="rounded=0;whiteSpace=wrap;html=1;points=[];fillColor=#C3ABD0;fillOpacity=20;" vertex="1" parent="1">
          <mxGeometry x="460" y="430" width="50" height="40" as="geometry" />
        </mxCell>
        <mxCell id="LZRvv1edOtaZu7CTyLe6-164" value="TAB&lt;br&gt;\t" style="rounded=0;whiteSpace=wrap;html=1;points=[];fillColor=#C3ABD0;fillOpacity=20;" vertex="1" parent="1">
          <mxGeometry x="510" y="430" width="50" height="40" as="geometry" />
        </mxCell>
        <mxCell id="LZRvv1edOtaZu7CTyLe6-165" value="LF&lt;br&gt;\n" style="rounded=0;whiteSpace=wrap;html=1;points=[];fillColor=#C3ABD0;fillOpacity=20;" vertex="1" parent="1">
          <mxGeometry x="560" y="430" width="50" height="40" as="geometry" />
        </mxCell>
        <mxCell id="LZRvv1edOtaZu7CTyLe6-166" value="VT&lt;br&gt;\v" style="rounded=0;whiteSpace=wrap;html=1;points=[];fillColor=#C3ABD0;fillOpacity=20;" vertex="1" parent="1">
          <mxGeometry x="610" y="430" width="50" height="40" as="geometry" />
        </mxCell>
        <mxCell id="LZRvv1edOtaZu7CTyLe6-167" value="FF&lt;br&gt;\f" style="rounded=0;whiteSpace=wrap;html=1;points=[];fillColor=#C3ABD0;fillOpacity=20;" vertex="1" parent="1">
          <mxGeometry x="660" y="430" width="50" height="40" as="geometry" />
        </mxCell>
        <mxCell id="LZRvv1edOtaZu7CTyLe6-168" value="CR&lt;br&gt;\r" style="rounded=0;whiteSpace=wrap;html=1;points=[];fillColor=#C3ABD0;fillOpacity=20;" vertex="1" parent="1">
          <mxGeometry x="710" y="430" width="50" height="40" as="geometry" />
        </mxCell>
        <mxCell id="LZRvv1edOtaZu7CTyLe6-169" value="SO" style="rounded=0;whiteSpace=wrap;html=1;points=[];fillColor=#C3ABD0;fillOpacity=20;" vertex="1" parent="1">
          <mxGeometry x="760" y="430" width="50" height="40" as="geometry" />
        </mxCell>
        <mxCell id="LZRvv1edOtaZu7CTyLe6-170" value="SI" style="rounded=0;whiteSpace=wrap;html=1;points=[];fillColor=#C3ABD0;fillOpacity=20;" vertex="1" parent="1">
          <mxGeometry x="810" y="430" width="50" height="40" as="geometry" />
        </mxCell>
        <mxCell id="LZRvv1edOtaZu7CTyLe6-171" value="DLE" style="rounded=0;whiteSpace=wrap;html=1;points=[];fillColor=#C3ABD0;fillOpacity=20;" vertex="1" parent="1">
          <mxGeometry x="60" y="470" width="50" height="40" as="geometry" />
        </mxCell>
        <mxCell id="LZRvv1edOtaZu7CTyLe6-172" value="DC1" style="rounded=0;whiteSpace=wrap;html=1;points=[];fillColor=#C3ABD0;fillOpacity=20;" vertex="1" parent="1">
          <mxGeometry x="110" y="470" width="50" height="40" as="geometry" />
        </mxCell>
        <mxCell id="LZRvv1edOtaZu7CTyLe6-173" value="DC2" style="rounded=0;whiteSpace=wrap;html=1;points=[];fillColor=#C3ABD0;fillOpacity=20;" vertex="1" parent="1">
          <mxGeometry x="160" y="470" width="50" height="40" as="geometry" />
        </mxCell>
        <mxCell id="LZRvv1edOtaZu7CTyLe6-174" value="DC3" style="rounded=0;whiteSpace=wrap;html=1;points=[];fillColor=#C3ABD0;fillOpacity=20;" vertex="1" parent="1">
          <mxGeometry x="210" y="470" width="50" height="40" as="geometry" />
        </mxCell>
        <mxCell id="LZRvv1edOtaZu7CTyLe6-175" value="DC4" style="rounded=0;whiteSpace=wrap;html=1;points=[];fillColor=#C3ABD0;fillOpacity=20;" vertex="1" parent="1">
          <mxGeometry x="260" y="470" width="50" height="40" as="geometry" />
        </mxCell>
        <mxCell id="LZRvv1edOtaZu7CTyLe6-176" value="NAK" style="rounded=0;whiteSpace=wrap;html=1;points=[];fillColor=#C3ABD0;fillOpacity=20;" vertex="1" parent="1">
          <mxGeometry x="310" y="470" width="50" height="40" as="geometry" />
        </mxCell>
        <mxCell id="LZRvv1edOtaZu7CTyLe6-177" value="SYN" style="rounded=0;whiteSpace=wrap;html=1;points=[];fillColor=#C3ABD0;fillOpacity=20;" vertex="1" parent="1">
          <mxGeometry x="360" y="470" width="50" height="40" as="geometry" />
        </mxCell>
        <mxCell id="LZRvv1edOtaZu7CTyLe6-178" value="ETB" style="rounded=0;whiteSpace=wrap;html=1;points=[];fillColor=#C3ABD0;fillOpacity=20;" vertex="1" parent="1">
          <mxGeometry x="410" y="470" width="50" height="40" as="geometry" />
        </mxCell>
        <mxCell id="LZRvv1edOtaZu7CTyLe6-179" value="CAN" style="rounded=0;whiteSpace=wrap;html=1;points=[];fillColor=#C3ABD0;fillOpacity=20;" vertex="1" parent="1">
          <mxGeometry x="460" y="470" width="50" height="40" as="geometry" />
        </mxCell>
        <mxCell id="LZRvv1edOtaZu7CTyLe6-180" value="EM" style="rounded=0;whiteSpace=wrap;html=1;points=[];fillColor=#C3ABD0;fillOpacity=20;" vertex="1" parent="1">
          <mxGeometry x="510" y="470" width="50" height="40" as="geometry" />
        </mxCell>
        <mxCell id="LZRvv1edOtaZu7CTyLe6-181" value="SUB" style="rounded=0;whiteSpace=wrap;html=1;points=[];fillColor=#C3ABD0;fillOpacity=20;" vertex="1" parent="1">
          <mxGeometry x="560" y="470" width="50" height="40" as="geometry" />
        </mxCell>
        <mxCell id="LZRvv1edOtaZu7CTyLe6-182" value="ESC" style="rounded=0;whiteSpace=wrap;html=1;points=[];fillColor=#C3ABD0;fillOpacity=20;" vertex="1" parent="1">
          <mxGeometry x="610" y="470" width="50" height="40" as="geometry" />
        </mxCell>
        <mxCell id="LZRvv1edOtaZu7CTyLe6-183" value="FS" style="rounded=0;whiteSpace=wrap;html=1;points=[];fillColor=#C3ABD0;fillOpacity=20;" vertex="1" parent="1">
          <mxGeometry x="660" y="470" width="50" height="40" as="geometry" />
        </mxCell>
        <mxCell id="LZRvv1edOtaZu7CTyLe6-184" value="GS" style="rounded=0;whiteSpace=wrap;html=1;points=[];fillColor=#C3ABD0;fillOpacity=20;" vertex="1" parent="1">
          <mxGeometry x="710" y="470" width="50" height="40" as="geometry" />
        </mxCell>
        <mxCell id="LZRvv1edOtaZu7CTyLe6-185" value="RS" style="rounded=0;whiteSpace=wrap;html=1;points=[];fillColor=#C3ABD0;fillOpacity=20;" vertex="1" parent="1">
          <mxGeometry x="760" y="470" width="50" height="40" as="geometry" />
        </mxCell>
        <mxCell id="LZRvv1edOtaZu7CTyLe6-186" value="US" style="rounded=0;whiteSpace=wrap;html=1;points=[];fillColor=#C3ABD0;fillOpacity=20;" vertex="1" parent="1">
          <mxGeometry x="810" y="470" width="50" height="40" as="geometry" />
        </mxCell>
        <mxCell id="LZRvv1edOtaZu7CTyLe6-187" value="&amp;nbsp;" style="rounded=0;whiteSpace=wrap;html=1;points=[];fillColor=#9AC7BF;fillOpacity=20;" vertex="1" parent="1">
          <mxGeometry x="60" y="510" width="50" height="40" as="geometry" />
        </mxCell>
        <mxCell id="LZRvv1edOtaZu7CTyLe6-188" value="!" style="rounded=0;whiteSpace=wrap;html=1;points=[];fillColor=#9AC7BF;fillOpacity=20;" vertex="1" parent="1">
          <mxGeometry x="110" y="510" width="50" height="40" as="geometry" />
        </mxCell>
        <mxCell id="LZRvv1edOtaZu7CTyLe6-189" value="&quot;" style="rounded=0;whiteSpace=wrap;html=1;points=[];fillColor=#9AC7BF;fillOpacity=20;" vertex="1" parent="1">
          <mxGeometry x="160" y="510" width="50" height="40" as="geometry" />
        </mxCell>
        <mxCell id="LZRvv1edOtaZu7CTyLe6-190" value="#" style="rounded=0;whiteSpace=wrap;html=1;points=[];fillColor=#9AC7BF;fillOpacity=20;" vertex="1" parent="1">
          <mxGeometry x="210" y="510" width="50" height="40" as="geometry" />
        </mxCell>
        <mxCell id="LZRvv1edOtaZu7CTyLe6-191" value="$" style="rounded=0;whiteSpace=wrap;html=1;points=[];fillColor=#9AC7BF;fillOpacity=20;" vertex="1" parent="1">
          <mxGeometry x="260" y="510" width="50" height="40" as="geometry" />
        </mxCell>
        <mxCell id="LZRvv1edOtaZu7CTyLe6-192" value="%" style="rounded=0;whiteSpace=wrap;html=1;points=[];fillColor=#9AC7BF;fillOpacity=20;" vertex="1" parent="1">
          <mxGeometry x="310" y="510" width="50" height="40" as="geometry" />
        </mxCell>
        <mxCell id="LZRvv1edOtaZu7CTyLe6-193" value="&amp;amp;" style="rounded=0;whiteSpace=wrap;html=1;points=[];fillColor=#9AC7BF;fillOpacity=20;" vertex="1" parent="1">
          <mxGeometry x="360" y="510" width="50" height="40" as="geometry" />
        </mxCell>
        <mxCell id="LZRvv1edOtaZu7CTyLe6-194" value="′" style="rounded=0;whiteSpace=wrap;html=1;points=[];fillColor=#9AC7BF;fillOpacity=20;" vertex="1" parent="1">
          <mxGeometry x="410" y="510" width="50" height="40" as="geometry" />
        </mxCell>
        <mxCell id="LZRvv1edOtaZu7CTyLe6-195" value="(" style="rounded=0;whiteSpace=wrap;html=1;points=[];fillColor=#9AC7BF;fillOpacity=20;" vertex="1" parent="1">
          <mxGeometry x="460" y="510" width="50" height="40" as="geometry" />
        </mxCell>
        <mxCell id="LZRvv1edOtaZu7CTyLe6-196" value=")" style="rounded=0;whiteSpace=wrap;html=1;points=[];fillColor=#9AC7BF;fillOpacity=20;" vertex="1" parent="1">
          <mxGeometry x="510" y="510" width="50" height="40" as="geometry" />
        </mxCell>
        <mxCell id="LZRvv1edOtaZu7CTyLe6-197" value="*" style="rounded=0;whiteSpace=wrap;html=1;points=[];fillColor=#9AC7BF;fillOpacity=20;" vertex="1" parent="1">
          <mxGeometry x="560" y="510" width="50" height="40" as="geometry" />
        </mxCell>
        <mxCell id="LZRvv1edOtaZu7CTyLe6-198" value="+" style="rounded=0;whiteSpace=wrap;html=1;points=[];fillColor=#9AC7BF;fillOpacity=20;" vertex="1" parent="1">
          <mxGeometry x="610" y="510" width="50" height="40" as="geometry" />
        </mxCell>
        <mxCell id="LZRvv1edOtaZu7CTyLe6-199" value="," style="rounded=0;whiteSpace=wrap;html=1;points=[];fillColor=#9AC7BF;fillOpacity=20;" vertex="1" parent="1">
          <mxGeometry x="660" y="510" width="50" height="40" as="geometry" />
        </mxCell>
        <mxCell id="LZRvv1edOtaZu7CTyLe6-200" value="-" style="rounded=0;whiteSpace=wrap;html=1;points=[];fillColor=#9AC7BF;fillOpacity=20;" vertex="1" parent="1">
          <mxGeometry x="710" y="510" width="50" height="40" as="geometry" />
        </mxCell>
        <mxCell id="LZRvv1edOtaZu7CTyLe6-201" value="." style="rounded=0;whiteSpace=wrap;html=1;points=[];fillColor=#9AC7BF;fillOpacity=20;" vertex="1" parent="1">
          <mxGeometry x="760" y="510" width="50" height="40" as="geometry" />
        </mxCell>
        <mxCell id="LZRvv1edOtaZu7CTyLe6-202" value="/" style="rounded=0;whiteSpace=wrap;html=1;points=[];fillColor=#9AC7BF;fillOpacity=20;" vertex="1" parent="1">
          <mxGeometry x="810" y="510" width="50" height="40" as="geometry" />
        </mxCell>
        <mxCell id="LZRvv1edOtaZu7CTyLe6-204" value="0" style="rounded=0;whiteSpace=wrap;html=1;points=[];fillColor=none;fillOpacity=20;" vertex="1" parent="1">
          <mxGeometry x="60" y="550" width="50" height="40" as="geometry" />
        </mxCell>
        <mxCell id="LZRvv1edOtaZu7CTyLe6-205" value="1" style="rounded=0;whiteSpace=wrap;html=1;points=[];fillColor=none;fillOpacity=20;" vertex="1" parent="1">
          <mxGeometry x="110" y="550" width="50" height="40" as="geometry" />
        </mxCell>
        <mxCell id="LZRvv1edOtaZu7CTyLe6-206" value="2" style="rounded=0;whiteSpace=wrap;html=1;points=[];fillColor=none;fillOpacity=20;" vertex="1" parent="1">
          <mxGeometry x="160" y="550" width="50" height="40" as="geometry" />
        </mxCell>
        <mxCell id="LZRvv1edOtaZu7CTyLe6-207" value="3" style="rounded=0;whiteSpace=wrap;html=1;points=[];fillColor=none;fillOpacity=20;" vertex="1" parent="1">
          <mxGeometry x="210" y="550" width="50" height="40" as="geometry" />
        </mxCell>
        <mxCell id="LZRvv1edOtaZu7CTyLe6-208" value="4" style="rounded=0;whiteSpace=wrap;html=1;points=[];fillColor=none;fillOpacity=20;" vertex="1" parent="1">
          <mxGeometry x="260" y="550" width="50" height="40" as="geometry" />
        </mxCell>
        <mxCell id="LZRvv1edOtaZu7CTyLe6-209" value="5" style="rounded=0;whiteSpace=wrap;html=1;points=[];fillColor=none;fillOpacity=20;" vertex="1" parent="1">
          <mxGeometry x="310" y="550" width="50" height="40" as="geometry" />
        </mxCell>
        <mxCell id="LZRvv1edOtaZu7CTyLe6-210" value="6" style="rounded=0;whiteSpace=wrap;html=1;points=[];fillColor=none;fillOpacity=20;" vertex="1" parent="1">
          <mxGeometry x="360" y="550" width="50" height="40" as="geometry" />
        </mxCell>
        <mxCell id="LZRvv1edOtaZu7CTyLe6-211" value="7" style="rounded=0;whiteSpace=wrap;html=1;points=[];fillColor=none;fillOpacity=20;" vertex="1" parent="1">
          <mxGeometry x="410" y="550" width="50" height="40" as="geometry" />
        </mxCell>
        <mxCell id="LZRvv1edOtaZu7CTyLe6-212" value="8" style="rounded=0;whiteSpace=wrap;html=1;points=[];fillColor=none;fillOpacity=20;" vertex="1" parent="1">
          <mxGeometry x="460" y="550" width="50" height="40" as="geometry" />
        </mxCell>
        <mxCell id="LZRvv1edOtaZu7CTyLe6-213" value="9" style="rounded=0;whiteSpace=wrap;html=1;points=[];fillColor=none;fillOpacity=20;" vertex="1" parent="1">
          <mxGeometry x="510" y="550" width="50" height="40" as="geometry" />
        </mxCell>
        <mxCell id="LZRvv1edOtaZu7CTyLe6-214" value=":" style="rounded=0;whiteSpace=wrap;html=1;points=[];fillColor=#9AC7BF;fillOpacity=20;" vertex="1" parent="1">
          <mxGeometry x="560" y="550" width="50" height="40" as="geometry" />
        </mxCell>
        <mxCell id="LZRvv1edOtaZu7CTyLe6-215" value=";" style="rounded=0;whiteSpace=wrap;html=1;points=[];fillColor=#9AC7BF;fillOpacity=20;" vertex="1" parent="1">
          <mxGeometry x="610" y="550" width="50" height="40" as="geometry" />
        </mxCell>
        <mxCell id="LZRvv1edOtaZu7CTyLe6-216" value="&amp;lt;" style="rounded=0;whiteSpace=wrap;html=1;points=[];fillColor=#9AC7BF;fillOpacity=20;" vertex="1" parent="1">
          <mxGeometry x="660" y="550" width="50" height="40" as="geometry" />
        </mxCell>
        <mxCell id="LZRvv1edOtaZu7CTyLe6-217" value="=" style="rounded=0;whiteSpace=wrap;html=1;points=[];fillColor=#9AC7BF;fillOpacity=20;" vertex="1" parent="1">
          <mxGeometry x="710" y="550" width="50" height="40" as="geometry" />
        </mxCell>
        <mxCell id="LZRvv1edOtaZu7CTyLe6-218" value="&amp;gt;" style="rounded=0;whiteSpace=wrap;html=1;points=[];fillColor=#9AC7BF;fillOpacity=20;" vertex="1" parent="1">
          <mxGeometry x="760" y="550" width="50" height="40" as="geometry" />
        </mxCell>
        <mxCell id="LZRvv1edOtaZu7CTyLe6-219" value="?" style="rounded=0;whiteSpace=wrap;html=1;points=[];fillColor=#9AC7BF;fillOpacity=20;" vertex="1" parent="1">
          <mxGeometry x="810" y="550" width="50" height="40" as="geometry" />
        </mxCell>
        <mxCell id="LZRvv1edOtaZu7CTyLe6-220" value="@" style="rounded=0;whiteSpace=wrap;html=1;points=[];fillColor=#9AC7BF;fillOpacity=20;" vertex="1" parent="1">
          <mxGeometry x="60" y="590" width="50" height="40" as="geometry" />
        </mxCell>
        <mxCell id="LZRvv1edOtaZu7CTyLe6-221" value="A" style="rounded=0;whiteSpace=wrap;html=1;points=[];fillColor=none;fillOpacity=20;" vertex="1" parent="1">
          <mxGeometry x="110" y="590" width="50" height="40" as="geometry" />
        </mxCell>
        <mxCell id="LZRvv1edOtaZu7CTyLe6-222" value="B" style="rounded=0;whiteSpace=wrap;html=1;points=[];fillColor=none;fillOpacity=20;" vertex="1" parent="1">
          <mxGeometry x="160" y="590" width="50" height="40" as="geometry" />
        </mxCell>
        <mxCell id="LZRvv1edOtaZu7CTyLe6-223" value="C" style="rounded=0;whiteSpace=wrap;html=1;points=[];fillColor=none;fillOpacity=20;" vertex="1" parent="1">
          <mxGeometry x="210" y="590" width="50" height="40" as="geometry" />
        </mxCell>
        <mxCell id="LZRvv1edOtaZu7CTyLe6-224" value="D" style="rounded=0;whiteSpace=wrap;html=1;points=[];fillColor=none;fillOpacity=20;" vertex="1" parent="1">
          <mxGeometry x="260" y="590" width="50" height="40" as="geometry" />
        </mxCell>
        <mxCell id="LZRvv1edOtaZu7CTyLe6-225" value="E" style="rounded=0;whiteSpace=wrap;html=1;points=[];fillColor=none;fillOpacity=20;" vertex="1" parent="1">
          <mxGeometry x="310" y="590" width="50" height="40" as="geometry" />
        </mxCell>
        <mxCell id="LZRvv1edOtaZu7CTyLe6-226" value="F" style="rounded=0;whiteSpace=wrap;html=1;points=[];fillColor=none;fillOpacity=20;" vertex="1" parent="1">
          <mxGeometry x="360" y="590" width="50" height="40" as="geometry" />
        </mxCell>
        <mxCell id="LZRvv1edOtaZu7CTyLe6-227" value="G" style="rounded=0;whiteSpace=wrap;html=1;points=[];fillColor=none;fillOpacity=20;" vertex="1" parent="1">
          <mxGeometry x="410" y="590" width="50" height="40" as="geometry" />
        </mxCell>
        <mxCell id="LZRvv1edOtaZu7CTyLe6-228" value="H" style="rounded=0;whiteSpace=wrap;html=1;points=[];fillColor=none;fillOpacity=20;" vertex="1" parent="1">
          <mxGeometry x="460" y="590" width="50" height="40" as="geometry" />
        </mxCell>
        <mxCell id="LZRvv1edOtaZu7CTyLe6-229" value="I" style="rounded=0;whiteSpace=wrap;html=1;points=[];fillColor=none;fillOpacity=20;" vertex="1" parent="1">
          <mxGeometry x="510" y="590" width="50" height="40" as="geometry" />
        </mxCell>
        <mxCell id="LZRvv1edOtaZu7CTyLe6-230" value="J" style="rounded=0;whiteSpace=wrap;html=1;points=[];fillColor=none;fillOpacity=20;" vertex="1" parent="1">
          <mxGeometry x="560" y="590" width="50" height="40" as="geometry" />
        </mxCell>
        <mxCell id="LZRvv1edOtaZu7CTyLe6-231" value="K" style="rounded=0;whiteSpace=wrap;html=1;points=[];fillColor=none;fillOpacity=20;" vertex="1" parent="1">
          <mxGeometry x="610" y="590" width="50" height="40" as="geometry" />
        </mxCell>
        <mxCell id="LZRvv1edOtaZu7CTyLe6-232" value="L" style="rounded=0;whiteSpace=wrap;html=1;points=[];fillColor=none;fillOpacity=20;" vertex="1" parent="1">
          <mxGeometry x="660" y="590" width="50" height="40" as="geometry" />
        </mxCell>
        <mxCell id="LZRvv1edOtaZu7CTyLe6-233" value="M" style="rounded=0;whiteSpace=wrap;html=1;points=[];fillColor=none;fillOpacity=20;" vertex="1" parent="1">
          <mxGeometry x="710" y="590" width="50" height="40" as="geometry" />
        </mxCell>
        <mxCell id="LZRvv1edOtaZu7CTyLe6-234" value="N" style="rounded=0;whiteSpace=wrap;html=1;points=[];fillColor=none;fillOpacity=20;" vertex="1" parent="1">
          <mxGeometry x="760" y="590" width="50" height="40" as="geometry" />
        </mxCell>
        <mxCell id="LZRvv1edOtaZu7CTyLe6-235" value="O" style="rounded=0;whiteSpace=wrap;html=1;points=[];fillColor=none;fillOpacity=20;" vertex="1" parent="1">
          <mxGeometry x="810" y="590" width="50" height="40" as="geometry" />
        </mxCell>
        <mxCell id="LZRvv1edOtaZu7CTyLe6-236" value="P" style="rounded=0;whiteSpace=wrap;html=1;points=[];fillColor=none;fillOpacity=20;" vertex="1" parent="1">
          <mxGeometry x="60" y="630" width="50" height="40" as="geometry" />
        </mxCell>
        <mxCell id="LZRvv1edOtaZu7CTyLe6-237" value="Q" style="rounded=0;whiteSpace=wrap;html=1;points=[];fillColor=none;fillOpacity=20;" vertex="1" parent="1">
          <mxGeometry x="110" y="630" width="50" height="40" as="geometry" />
        </mxCell>
        <mxCell id="LZRvv1edOtaZu7CTyLe6-238" value="R" style="rounded=0;whiteSpace=wrap;html=1;points=[];fillColor=none;fillOpacity=20;" vertex="1" parent="1">
          <mxGeometry x="160" y="630" width="50" height="40" as="geometry" />
        </mxCell>
        <mxCell id="LZRvv1edOtaZu7CTyLe6-239" value="S" style="rounded=0;whiteSpace=wrap;html=1;points=[];fillColor=none;fillOpacity=20;" vertex="1" parent="1">
          <mxGeometry x="210" y="630" width="50" height="40" as="geometry" />
        </mxCell>
        <mxCell id="LZRvv1edOtaZu7CTyLe6-240" value="T" style="rounded=0;whiteSpace=wrap;html=1;points=[];fillColor=none;fillOpacity=20;" vertex="1" parent="1">
          <mxGeometry x="260" y="630" width="50" height="40" as="geometry" />
        </mxCell>
        <mxCell id="LZRvv1edOtaZu7CTyLe6-241" value="U" style="rounded=0;whiteSpace=wrap;html=1;points=[];fillColor=none;fillOpacity=20;" vertex="1" parent="1">
          <mxGeometry x="310" y="630" width="50" height="40" as="geometry" />
        </mxCell>
        <mxCell id="LZRvv1edOtaZu7CTyLe6-242" value="V" style="rounded=0;whiteSpace=wrap;html=1;points=[];fillColor=none;fillOpacity=20;" vertex="1" parent="1">
          <mxGeometry x="360" y="630" width="50" height="40" as="geometry" />
        </mxCell>
        <mxCell id="LZRvv1edOtaZu7CTyLe6-243" value="W" style="rounded=0;whiteSpace=wrap;html=1;points=[];fillColor=none;fillOpacity=20;" vertex="1" parent="1">
          <mxGeometry x="410" y="630" width="50" height="40" as="geometry" />
        </mxCell>
        <mxCell id="LZRvv1edOtaZu7CTyLe6-244" value="X" style="rounded=0;whiteSpace=wrap;html=1;points=[];fillColor=none;fillOpacity=20;" vertex="1" parent="1">
          <mxGeometry x="460" y="630" width="50" height="40" as="geometry" />
        </mxCell>
        <mxCell id="LZRvv1edOtaZu7CTyLe6-245" value="Y" style="rounded=0;whiteSpace=wrap;html=1;points=[];fillColor=none;fillOpacity=20;" vertex="1" parent="1">
          <mxGeometry x="510" y="630" width="50" height="40" as="geometry" />
        </mxCell>
        <mxCell id="LZRvv1edOtaZu7CTyLe6-246" value="Z" style="rounded=0;whiteSpace=wrap;html=1;points=[];fillColor=none;fillOpacity=20;" vertex="1" parent="1">
          <mxGeometry x="560" y="630" width="50" height="40" as="geometry" />
        </mxCell>
        <mxCell id="LZRvv1edOtaZu7CTyLe6-247" value="[" style="rounded=0;whiteSpace=wrap;html=1;points=[];fillColor=#9AC7BF;fillOpacity=20;" vertex="1" parent="1">
          <mxGeometry x="610" y="630" width="50" height="40" as="geometry" />
        </mxCell>
        <mxCell id="LZRvv1edOtaZu7CTyLe6-248" value="\&lt;br&gt;\\" style="rounded=0;whiteSpace=wrap;html=1;points=[];fillColor=#9AC7BF;fillOpacity=20;" vertex="1" parent="1">
          <mxGeometry x="660" y="630" width="50" height="40" as="geometry" />
        </mxCell>
        <mxCell id="LZRvv1edOtaZu7CTyLe6-249" value="]" style="rounded=0;whiteSpace=wrap;html=1;points=[];fillColor=#9AC7BF;fillOpacity=20;" vertex="1" parent="1">
          <mxGeometry x="710" y="630" width="50" height="40" as="geometry" />
        </mxCell>
        <mxCell id="LZRvv1edOtaZu7CTyLe6-250" value="^" style="rounded=0;whiteSpace=wrap;html=1;points=[];fillColor=#9AC7BF;fillOpacity=20;" vertex="1" parent="1">
          <mxGeometry x="760" y="630" width="50" height="40" as="geometry" />
        </mxCell>
        <mxCell id="LZRvv1edOtaZu7CTyLe6-251" value="_" style="rounded=0;whiteSpace=wrap;html=1;points=[];fillColor=#9AC7BF;fillOpacity=20;" vertex="1" parent="1">
          <mxGeometry x="810" y="630" width="50" height="40" as="geometry" />
        </mxCell>
        <mxCell id="LZRvv1edOtaZu7CTyLe6-252" value="`" style="rounded=0;whiteSpace=wrap;html=1;points=[];fillColor=#9AC7BF;fillOpacity=20;" vertex="1" parent="1">
          <mxGeometry x="60" y="670" width="50" height="40" as="geometry" />
        </mxCell>
        <mxCell id="LZRvv1edOtaZu7CTyLe6-253" value="a" style="rounded=0;whiteSpace=wrap;html=1;points=[];fillColor=none;fillOpacity=20;" vertex="1" parent="1">
          <mxGeometry x="110" y="670" width="50" height="40" as="geometry" />
        </mxCell>
        <mxCell id="LZRvv1edOtaZu7CTyLe6-254" value="b" style="rounded=0;whiteSpace=wrap;html=1;points=[];fillColor=none;fillOpacity=20;" vertex="1" parent="1">
          <mxGeometry x="160" y="670" width="50" height="40" as="geometry" />
        </mxCell>
        <mxCell id="LZRvv1edOtaZu7CTyLe6-255" value="c" style="rounded=0;whiteSpace=wrap;html=1;points=[];fillColor=none;fillOpacity=20;" vertex="1" parent="1">
          <mxGeometry x="210" y="670" width="50" height="40" as="geometry" />
        </mxCell>
        <mxCell id="LZRvv1edOtaZu7CTyLe6-256" value="d" style="rounded=0;whiteSpace=wrap;html=1;points=[];fillColor=none;fillOpacity=20;" vertex="1" parent="1">
          <mxGeometry x="260" y="670" width="50" height="40" as="geometry" />
        </mxCell>
        <mxCell id="LZRvv1edOtaZu7CTyLe6-257" value="e" style="rounded=0;whiteSpace=wrap;html=1;points=[];fillColor=none;fillOpacity=20;" vertex="1" parent="1">
          <mxGeometry x="310" y="670" width="50" height="40" as="geometry" />
        </mxCell>
        <mxCell id="LZRvv1edOtaZu7CTyLe6-258" value="f" style="rounded=0;whiteSpace=wrap;html=1;points=[];fillColor=none;fillOpacity=20;" vertex="1" parent="1">
          <mxGeometry x="360" y="670" width="50" height="40" as="geometry" />
        </mxCell>
        <mxCell id="LZRvv1edOtaZu7CTyLe6-259" value="g" style="rounded=0;whiteSpace=wrap;html=1;points=[];fillColor=none;fillOpacity=20;" vertex="1" parent="1">
          <mxGeometry x="410" y="670" width="50" height="40" as="geometry" />
        </mxCell>
        <mxCell id="LZRvv1edOtaZu7CTyLe6-260" value="h" style="rounded=0;whiteSpace=wrap;html=1;points=[];fillColor=none;fillOpacity=20;" vertex="1" parent="1">
          <mxGeometry x="460" y="670" width="50" height="40" as="geometry" />
        </mxCell>
        <mxCell id="LZRvv1edOtaZu7CTyLe6-261" value="i" style="rounded=0;whiteSpace=wrap;html=1;points=[];fillColor=none;fillOpacity=20;" vertex="1" parent="1">
          <mxGeometry x="510" y="670" width="50" height="40" as="geometry" />
        </mxCell>
        <mxCell id="LZRvv1edOtaZu7CTyLe6-262" value="j" style="rounded=0;whiteSpace=wrap;html=1;points=[];fillColor=none;fillOpacity=20;" vertex="1" parent="1">
          <mxGeometry x="560" y="670" width="50" height="40" as="geometry" />
        </mxCell>
        <mxCell id="LZRvv1edOtaZu7CTyLe6-263" value="k" style="rounded=0;whiteSpace=wrap;html=1;points=[];fillColor=none;fillOpacity=20;" vertex="1" parent="1">
          <mxGeometry x="610" y="670" width="50" height="40" as="geometry" />
        </mxCell>
        <mxCell id="LZRvv1edOtaZu7CTyLe6-264" value="l" style="rounded=0;whiteSpace=wrap;html=1;points=[];fillColor=none;fillOpacity=20;" vertex="1" parent="1">
          <mxGeometry x="660" y="670" width="50" height="40" as="geometry" />
        </mxCell>
        <mxCell id="LZRvv1edOtaZu7CTyLe6-265" value="m" style="rounded=0;whiteSpace=wrap;html=1;points=[];fillColor=none;fillOpacity=20;" vertex="1" parent="1">
          <mxGeometry x="710" y="670" width="50" height="40" as="geometry" />
        </mxCell>
        <mxCell id="LZRvv1edOtaZu7CTyLe6-266" value="n" style="rounded=0;whiteSpace=wrap;html=1;points=[];fillColor=none;fillOpacity=20;" vertex="1" parent="1">
          <mxGeometry x="760" y="670" width="50" height="40" as="geometry" />
        </mxCell>
        <mxCell id="LZRvv1edOtaZu7CTyLe6-267" value="o" style="rounded=0;whiteSpace=wrap;html=1;points=[];fillColor=none;fillOpacity=20;" vertex="1" parent="1">
          <mxGeometry x="810" y="670" width="50" height="40" as="geometry" />
        </mxCell>
        <mxCell id="LZRvv1edOtaZu7CTyLe6-269" value="p" style="rounded=0;whiteSpace=wrap;html=1;points=[];fillColor=none;fillOpacity=20;" vertex="1" parent="1">
          <mxGeometry x="60" y="710" width="50" height="40" as="geometry" />
        </mxCell>
        <mxCell id="LZRvv1edOtaZu7CTyLe6-270" value="q" style="rounded=0;whiteSpace=wrap;html=1;points=[];fillColor=none;fillOpacity=20;" vertex="1" parent="1">
          <mxGeometry x="110" y="710" width="50" height="40" as="geometry" />
        </mxCell>
        <mxCell id="LZRvv1edOtaZu7CTyLe6-271" value="r" style="rounded=0;whiteSpace=wrap;html=1;points=[];fillColor=none;fillOpacity=20;" vertex="1" parent="1">
          <mxGeometry x="160" y="710" width="50" height="40" as="geometry" />
        </mxCell>
        <mxCell id="LZRvv1edOtaZu7CTyLe6-272" value="s" style="rounded=0;whiteSpace=wrap;html=1;points=[];fillColor=none;fillOpacity=20;" vertex="1" parent="1">
          <mxGeometry x="210" y="710" width="50" height="40" as="geometry" />
        </mxCell>
        <mxCell id="LZRvv1edOtaZu7CTyLe6-273" value="t" style="rounded=0;whiteSpace=wrap;html=1;points=[];fillColor=none;fillOpacity=20;" vertex="1" parent="1">
          <mxGeometry x="260" y="710" width="50" height="40" as="geometry" />
        </mxCell>
        <mxCell id="LZRvv1edOtaZu7CTyLe6-274" value="u" style="rounded=0;whiteSpace=wrap;html=1;points=[];fillColor=none;fillOpacity=20;" vertex="1" parent="1">
          <mxGeometry x="310" y="710" width="50" height="40" as="geometry" />
        </mxCell>
        <mxCell id="LZRvv1edOtaZu7CTyLe6-275" value="v" style="rounded=0;whiteSpace=wrap;html=1;points=[];fillColor=none;fillOpacity=20;" vertex="1" parent="1">
          <mxGeometry x="360" y="710" width="50" height="40" as="geometry" />
        </mxCell>
        <mxCell id="LZRvv1edOtaZu7CTyLe6-276" value="w" style="rounded=0;whiteSpace=wrap;html=1;points=[];fillColor=none;fillOpacity=20;" vertex="1" parent="1">
          <mxGeometry x="410" y="710" width="50" height="40" as="geometry" />
        </mxCell>
        <mxCell id="LZRvv1edOtaZu7CTyLe6-277" value="x" style="rounded=0;whiteSpace=wrap;html=1;points=[];fillColor=none;fillOpacity=20;" vertex="1" parent="1">
          <mxGeometry x="460" y="710" width="50" height="40" as="geometry" />
        </mxCell>
        <mxCell id="LZRvv1edOtaZu7CTyLe6-278" value="y" style="rounded=0;whiteSpace=wrap;html=1;points=[];fillColor=none;fillOpacity=20;" vertex="1" parent="1">
          <mxGeometry x="510" y="710" width="50" height="40" as="geometry" />
        </mxCell>
        <mxCell id="LZRvv1edOtaZu7CTyLe6-279" value="z" style="rounded=0;whiteSpace=wrap;html=1;points=[];fillColor=none;fillOpacity=20;" vertex="1" parent="1">
          <mxGeometry x="560" y="710" width="50" height="40" as="geometry" />
        </mxCell>
        <mxCell id="LZRvv1edOtaZu7CTyLe6-280" value="{" style="rounded=0;whiteSpace=wrap;html=1;points=[];fillColor=#9AC7BF;fillOpacity=20;" vertex="1" parent="1">
          <mxGeometry x="610" y="710" width="50" height="40" as="geometry" />
        </mxCell>
        <mxCell id="LZRvv1edOtaZu7CTyLe6-281" value="|" style="rounded=0;whiteSpace=wrap;html=1;points=[];fillColor=#9AC7BF;fillOpacity=20;" vertex="1" parent="1">
          <mxGeometry x="660" y="710" width="50" height="40" as="geometry" />
        </mxCell>
        <mxCell id="LZRvv1edOtaZu7CTyLe6-282" value="}" style="rounded=0;whiteSpace=wrap;html=1;points=[];fillColor=#9AC7BF;fillOpacity=20;" vertex="1" parent="1">
          <mxGeometry x="710" y="710" width="50" height="40" as="geometry" />
        </mxCell>
        <mxCell id="LZRvv1edOtaZu7CTyLe6-283" value="~" style="rounded=0;whiteSpace=wrap;html=1;points=[];fillColor=#9AC7BF;fillOpacity=20;" vertex="1" parent="1">
          <mxGeometry x="760" y="710" width="50" height="40" as="geometry" />
        </mxCell>
        <mxCell id="LZRvv1edOtaZu7CTyLe6-284" value="DEL" style="rounded=0;whiteSpace=wrap;html=1;points=[];fillColor=#EA6B66;fillOpacity=20;" vertex="1" parent="1">
          <mxGeometry x="810" y="710" width="50" height="40" as="geometry" />
        </mxCell>
        <mxCell id="LZRvv1edOtaZu7CTyLe6-285" value="000&lt;br&gt;0x00" style="text;strokeColor=none;align=center;fillColor=none;html=1;verticalAlign=middle;whiteSpace=wrap;rounded=0;" vertex="1" parent="1">
          <mxGeometry x="10" y="435" width="50" height="30" as="geometry" />
        </mxCell>
        <mxCell id="LZRvv1edOtaZu7CTyLe6-286" value="020&lt;br&gt;0x10" style="text;strokeColor=none;align=center;fillColor=none;html=1;verticalAlign=middle;whiteSpace=wrap;rounded=0;" vertex="1" parent="1">
          <mxGeometry x="10" y="475" width="50" height="30" as="geometry" />
        </mxCell>
        <mxCell id="LZRvv1edOtaZu7CTyLe6-287" value="040&lt;br&gt;0x20" style="text;strokeColor=none;align=center;fillColor=none;html=1;verticalAlign=middle;whiteSpace=wrap;rounded=0;" vertex="1" parent="1">
          <mxGeometry x="10" y="515" width="50" height="30" as="geometry" />
        </mxCell>
        <mxCell id="LZRvv1edOtaZu7CTyLe6-288" value="060&lt;br&gt;0x30" style="text;strokeColor=none;align=center;fillColor=none;html=1;verticalAlign=middle;whiteSpace=wrap;rounded=0;" vertex="1" parent="1">
          <mxGeometry x="10" y="555" width="50" height="30" as="geometry" />
        </mxCell>
        <mxCell id="LZRvv1edOtaZu7CTyLe6-289" value="080&lt;br&gt;0x40" style="text;strokeColor=none;align=center;fillColor=none;html=1;verticalAlign=middle;whiteSpace=wrap;rounded=0;" vertex="1" parent="1">
          <mxGeometry x="10" y="595" width="50" height="30" as="geometry" />
        </mxCell>
        <mxCell id="LZRvv1edOtaZu7CTyLe6-290" value="0120&lt;br&gt;0x50" style="text;strokeColor=none;align=center;fillColor=none;html=1;verticalAlign=middle;whiteSpace=wrap;rounded=0;" vertex="1" parent="1">
          <mxGeometry x="10" y="635" width="50" height="30" as="geometry" />
        </mxCell>
        <mxCell id="LZRvv1edOtaZu7CTyLe6-291" value="0140&lt;br&gt;0x60" style="text;strokeColor=none;align=center;fillColor=none;html=1;verticalAlign=middle;whiteSpace=wrap;rounded=0;" vertex="1" parent="1">
          <mxGeometry x="10" y="675" width="50" height="30" as="geometry" />
        </mxCell>
        <mxCell id="LZRvv1edOtaZu7CTyLe6-292" value="0160&lt;br&gt;0x70" style="text;strokeColor=none;align=center;fillColor=none;html=1;verticalAlign=middle;whiteSpace=wrap;rounded=0;" vertex="1" parent="1">
          <mxGeometry x="10" y="715" width="50" height="30" as="geometry" />
        </mxCell>
        <mxCell id="LZRvv1edOtaZu7CTyLe6-293" value="000&lt;br&gt;0x00" style="text;strokeColor=none;align=center;fillColor=none;html=1;verticalAlign=middle;whiteSpace=wrap;rounded=0;" vertex="1" parent="1">
          <mxGeometry x="61" y="397" width="50" height="30" as="geometry" />
        </mxCell>
        <mxCell id="LZRvv1edOtaZu7CTyLe6-294" value="001&lt;br&gt;0x01" style="text;strokeColor=none;align=center;fillColor=none;html=1;verticalAlign=middle;whiteSpace=wrap;rounded=0;" vertex="1" parent="1">
          <mxGeometry x="111" y="397" width="50" height="30" as="geometry" />
        </mxCell>
        <mxCell id="LZRvv1edOtaZu7CTyLe6-295" value="002&lt;br&gt;0x02" style="text;strokeColor=none;align=center;fillColor=none;html=1;verticalAlign=middle;whiteSpace=wrap;rounded=0;" vertex="1" parent="1">
          <mxGeometry x="160" y="397" width="50" height="30" as="geometry" />
        </mxCell>
        <mxCell id="LZRvv1edOtaZu7CTyLe6-296" value="003&lt;br&gt;0x03" style="text;strokeColor=none;align=center;fillColor=none;html=1;verticalAlign=middle;whiteSpace=wrap;rounded=0;" vertex="1" parent="1">
          <mxGeometry x="210" y="397" width="50" height="30" as="geometry" />
        </mxCell>
        <mxCell id="LZRvv1edOtaZu7CTyLe6-297" value="004&lt;br&gt;0x04" style="text;strokeColor=none;align=center;fillColor=none;html=1;verticalAlign=middle;whiteSpace=wrap;rounded=0;" vertex="1" parent="1">
          <mxGeometry x="260" y="397" width="50" height="30" as="geometry" />
        </mxCell>
        <mxCell id="LZRvv1edOtaZu7CTyLe6-298" value="005&lt;br&gt;0x05" style="text;strokeColor=none;align=center;fillColor=none;html=1;verticalAlign=middle;whiteSpace=wrap;rounded=0;" vertex="1" parent="1">
          <mxGeometry x="310" y="397" width="50" height="30" as="geometry" />
        </mxCell>
        <mxCell id="LZRvv1edOtaZu7CTyLe6-299" value="006&lt;br&gt;0x06" style="text;strokeColor=none;align=center;fillColor=none;html=1;verticalAlign=middle;whiteSpace=wrap;rounded=0;" vertex="1" parent="1">
          <mxGeometry x="359" y="397" width="50" height="30" as="geometry" />
        </mxCell>
        <mxCell id="LZRvv1edOtaZu7CTyLe6-300" value="007&lt;br&gt;0x07" style="text;strokeColor=none;align=center;fillColor=none;html=1;verticalAlign=middle;whiteSpace=wrap;rounded=0;" vertex="1" parent="1">
          <mxGeometry x="409" y="397" width="50" height="30" as="geometry" />
        </mxCell>
        <mxCell id="LZRvv1edOtaZu7CTyLe6-301" value="010&lt;br&gt;0x08" style="text;strokeColor=none;align=center;fillColor=none;html=1;verticalAlign=middle;whiteSpace=wrap;rounded=0;" vertex="1" parent="1">
          <mxGeometry x="462" y="397" width="50" height="30" as="geometry" />
        </mxCell>
        <mxCell id="LZRvv1edOtaZu7CTyLe6-302" value="011&lt;br&gt;0x09" style="text;strokeColor=none;align=center;fillColor=none;html=1;verticalAlign=middle;whiteSpace=wrap;rounded=0;" vertex="1" parent="1">
          <mxGeometry x="512" y="397" width="50" height="30" as="geometry" />
        </mxCell>
        <mxCell id="LZRvv1edOtaZu7CTyLe6-303" value="012&lt;br&gt;0x0A" style="text;strokeColor=none;align=center;fillColor=none;html=1;verticalAlign=middle;whiteSpace=wrap;rounded=0;" vertex="1" parent="1">
          <mxGeometry x="561" y="397" width="50" height="30" as="geometry" />
        </mxCell>
        <mxCell id="LZRvv1edOtaZu7CTyLe6-304" value="013&lt;br&gt;0x0B" style="text;strokeColor=none;align=center;fillColor=none;html=1;verticalAlign=middle;whiteSpace=wrap;rounded=0;" vertex="1" parent="1">
          <mxGeometry x="611" y="397" width="50" height="30" as="geometry" />
        </mxCell>
        <mxCell id="LZRvv1edOtaZu7CTyLe6-305" value="014&lt;br&gt;0x0C" style="text;strokeColor=none;align=center;fillColor=none;html=1;verticalAlign=middle;whiteSpace=wrap;rounded=0;" vertex="1" parent="1">
          <mxGeometry x="661" y="397" width="50" height="30" as="geometry" />
        </mxCell>
        <mxCell id="LZRvv1edOtaZu7CTyLe6-306" value="015&lt;br&gt;0x0D" style="text;strokeColor=none;align=center;fillColor=none;html=1;verticalAlign=middle;whiteSpace=wrap;rounded=0;" vertex="1" parent="1">
          <mxGeometry x="711" y="397" width="50" height="30" as="geometry" />
        </mxCell>
        <mxCell id="LZRvv1edOtaZu7CTyLe6-307" value="016&lt;br&gt;0x0E" style="text;strokeColor=none;align=center;fillColor=none;html=1;verticalAlign=middle;whiteSpace=wrap;rounded=0;" vertex="1" parent="1">
          <mxGeometry x="760" y="397" width="50" height="30" as="geometry" />
        </mxCell>
        <mxCell id="LZRvv1edOtaZu7CTyLe6-308" value="017&lt;br&gt;0x0F" style="text;strokeColor=none;align=center;fillColor=none;html=1;verticalAlign=middle;whiteSpace=wrap;rounded=0;" vertex="1" parent="1">
          <mxGeometry x="810" y="397" width="50" height="30" as="geometry" />
        </mxCell>
      </root>
    </mxGraphModel>
  </diagram>
</mxfile>
